<mxfile host="Electron" modified="2023-05-28T17:07:13.682Z" agent="Mozilla/5.0 (Windows NT 10.0; Win64; x64) AppleWebKit/537.36 (KHTML, like Gecko) draw.io/21.2.8 Chrome/112.0.5615.165 Electron/24.2.0 Safari/537.36" etag="N9xHMsHgZWP61LXp-UZ0" version="21.2.8" type="device">
  <diagram name="Страница 1" id="Apv9gRXaJSgYh0gWD6jB">
    <mxGraphModel dx="3808" dy="2204" grid="1" gridSize="10" guides="1" tooltips="1" connect="1" arrows="1" fold="1" page="1" pageScale="1" pageWidth="827" pageHeight="1169" math="0" shadow="0">
      <root>
        <mxCell id="0" />
        <mxCell id="1" parent="0" />
        <mxCell id="GsSrgzHy_Le1dBjLpQoA-1" value="" style="rounded=0;whiteSpace=wrap;html=1;" parent="1" vertex="1">
          <mxGeometry x="80" y="-1000" width="1200" height="760" as="geometry" />
        </mxCell>
        <mxCell id="GsSrgzHy_Le1dBjLpQoA-2" value="" style="rounded=0;whiteSpace=wrap;html=1;" parent="1" vertex="1">
          <mxGeometry x="80" y="-1000" width="240" height="760" as="geometry" />
        </mxCell>
        <mxCell id="GsSrgzHy_Le1dBjLpQoA-3" value="" style="rounded=1;whiteSpace=wrap;html=1;" parent="1" vertex="1">
          <mxGeometry x="330" y="-990" width="940" height="20" as="geometry" />
        </mxCell>
        <mxCell id="GsSrgzHy_Le1dBjLpQoA-5" value="&lt;font style=&quot;font-size: 36px;&quot;&gt;Пароль&lt;/font&gt;" style="rounded=1;whiteSpace=wrap;html=1;" parent="1" vertex="1">
          <mxGeometry x="330" y="-960" width="940" height="80" as="geometry" />
        </mxCell>
        <mxCell id="GsSrgzHy_Le1dBjLpQoA-11" value="&lt;font style=&quot;font-size: 36px;&quot;&gt;Пароль&lt;/font&gt;" style="rounded=1;whiteSpace=wrap;html=1;" parent="1" vertex="1">
          <mxGeometry x="330" y="-870" width="940" height="80" as="geometry" />
        </mxCell>
        <mxCell id="GsSrgzHy_Le1dBjLpQoA-12" value="&lt;font style=&quot;font-size: 36px;&quot;&gt;Пароль&lt;/font&gt;" style="rounded=1;whiteSpace=wrap;html=1;" parent="1" vertex="1">
          <mxGeometry x="330" y="-780" width="940" height="80" as="geometry" />
        </mxCell>
        <mxCell id="GsSrgzHy_Le1dBjLpQoA-13" value="&lt;font style=&quot;font-size: 36px;&quot;&gt;Пароль&lt;/font&gt;" style="rounded=1;whiteSpace=wrap;html=1;" parent="1" vertex="1">
          <mxGeometry x="330" y="-690" width="940" height="80" as="geometry" />
        </mxCell>
        <mxCell id="GsSrgzHy_Le1dBjLpQoA-14" value="&lt;font style=&quot;font-size: 36px;&quot;&gt;Пароль&lt;/font&gt;" style="rounded=1;whiteSpace=wrap;html=1;" parent="1" vertex="1">
          <mxGeometry x="330" y="-600" width="940" height="80" as="geometry" />
        </mxCell>
        <mxCell id="GsSrgzHy_Le1dBjLpQoA-15" value="&lt;font style=&quot;font-size: 36px;&quot;&gt;Пароль&lt;/font&gt;" style="rounded=1;whiteSpace=wrap;html=1;" parent="1" vertex="1">
          <mxGeometry x="330" y="-510" width="940" height="80" as="geometry" />
        </mxCell>
        <mxCell id="GsSrgzHy_Le1dBjLpQoA-16" value="Добавить пароль" style="rounded=1;whiteSpace=wrap;html=1;" parent="1" vertex="1">
          <mxGeometry x="90" y="-990" width="220" height="60" as="geometry" />
        </mxCell>
        <mxCell id="GsSrgzHy_Le1dBjLpQoA-17" value="Сгенерировать пароль" style="rounded=1;whiteSpace=wrap;html=1;" parent="1" vertex="1">
          <mxGeometry x="90" y="-920" width="220" height="60" as="geometry" />
        </mxCell>
        <mxCell id="GsSrgzHy_Le1dBjLpQoA-18" value="Выгрузить пароли" style="rounded=1;whiteSpace=wrap;html=1;" parent="1" vertex="1">
          <mxGeometry x="90" y="-850" width="220" height="60" as="geometry" />
        </mxCell>
        <mxCell id="GsSrgzHy_Le1dBjLpQoA-20" value="&lt;font style=&quot;font-size: 18px;&quot;&gt;Настройки&lt;/font&gt;" style="rounded=1;whiteSpace=wrap;html=1;" parent="1" vertex="1">
          <mxGeometry x="90" y="-780" width="220" height="60" as="geometry" />
        </mxCell>
        <mxCell id="GsSrgzHy_Le1dBjLpQoA-21" value="&lt;font style=&quot;font-size: 18px;&quot;&gt;Добавить пароль&lt;/font&gt;" style="rounded=1;whiteSpace=wrap;html=1;" parent="1" vertex="1">
          <mxGeometry x="90" y="-990" width="220" height="60" as="geometry" />
        </mxCell>
        <mxCell id="GsSrgzHy_Le1dBjLpQoA-22" value="&lt;font style=&quot;font-size: 18px;&quot;&gt;Сгенерировать пароль&lt;/font&gt;" style="rounded=1;whiteSpace=wrap;html=1;" parent="1" vertex="1">
          <mxGeometry x="90" y="-920" width="220" height="60" as="geometry" />
        </mxCell>
        <mxCell id="GsSrgzHy_Le1dBjLpQoA-23" value="&lt;font style=&quot;font-size: 18px;&quot;&gt;Выгрузить пароли&lt;/font&gt;" style="rounded=1;whiteSpace=wrap;html=1;" parent="1" vertex="1">
          <mxGeometry x="90" y="-850" width="220" height="60" as="geometry" />
        </mxCell>
        <mxCell id="GsSrgzHy_Le1dBjLpQoA-25" value="" style="rounded=0;whiteSpace=wrap;html=1;" parent="1" vertex="1">
          <mxGeometry x="-1160" y="-1000" width="1200" height="760" as="geometry" />
        </mxCell>
        <mxCell id="GsSrgzHy_Le1dBjLpQoA-26" value="Text" style="text;html=1;strokeColor=none;fillColor=none;align=center;verticalAlign=middle;whiteSpace=wrap;rounded=0;" parent="1" vertex="1">
          <mxGeometry x="720" y="-670" width="60" height="30" as="geometry" />
        </mxCell>
        <mxCell id="GsSrgzHy_Le1dBjLpQoA-27" value="&lt;font style=&quot;font-size: 72px;&quot;&gt;KeyVault&lt;/font&gt;" style="text;html=1;strokeColor=none;fillColor=none;align=center;verticalAlign=middle;whiteSpace=wrap;rounded=0;" parent="1" vertex="1">
          <mxGeometry x="-710" y="-775" width="300" height="70" as="geometry" />
        </mxCell>
        <mxCell id="GsSrgzHy_Le1dBjLpQoA-29" value="" style="rounded=1;whiteSpace=wrap;html=1;" parent="1" vertex="1">
          <mxGeometry x="-710" y="-650" width="300" height="30" as="geometry" />
        </mxCell>
        <mxCell id="GsSrgzHy_Le1dBjLpQoA-30" value="&lt;font style=&quot;font-size: 24px;&quot;&gt;Пароль&lt;/font&gt;" style="text;html=1;strokeColor=none;fillColor=none;align=center;verticalAlign=middle;whiteSpace=wrap;rounded=0;" parent="1" vertex="1">
          <mxGeometry x="-590" y="-690" width="60" height="30" as="geometry" />
        </mxCell>
        <mxCell id="GsSrgzHy_Le1dBjLpQoA-31" value="&lt;font style=&quot;font-size: 18px;&quot;&gt;Подтвердить&lt;/font&gt;" style="rounded=1;whiteSpace=wrap;html=1;" parent="1" vertex="1">
          <mxGeometry x="-620" y="-570" width="120" height="40" as="geometry" />
        </mxCell>
        <mxCell id="GsSrgzHy_Le1dBjLpQoA-32" value="&lt;font style=&quot;font-size: 48px;&quot;&gt;Окно авторизации&lt;/font&gt;" style="text;html=1;strokeColor=none;fillColor=none;align=center;verticalAlign=middle;whiteSpace=wrap;rounded=0;" parent="1" vertex="1">
          <mxGeometry x="-1160" y="-1140" width="1200" height="140" as="geometry" />
        </mxCell>
        <mxCell id="GsSrgzHy_Le1dBjLpQoA-33" value="&lt;font style=&quot;font-size: 48px;&quot;&gt;Главное окно&lt;/font&gt;" style="text;html=1;strokeColor=none;fillColor=none;align=center;verticalAlign=middle;whiteSpace=wrap;rounded=0;" parent="1" vertex="1">
          <mxGeometry x="80" y="-1140" width="1200" height="140" as="geometry" />
        </mxCell>
        <mxCell id="GsSrgzHy_Le1dBjLpQoA-34" value="" style="rounded=0;whiteSpace=wrap;html=1;" parent="1" vertex="1">
          <mxGeometry x="1320" y="-1000" width="1200" height="760" as="geometry" />
        </mxCell>
        <mxCell id="GsSrgzHy_Le1dBjLpQoA-35" value="&lt;font style=&quot;font-size: 48px;&quot;&gt;Добавление/Изменение пароля&lt;/font&gt;" style="text;html=1;strokeColor=none;fillColor=none;align=center;verticalAlign=middle;whiteSpace=wrap;rounded=0;" parent="1" vertex="1">
          <mxGeometry x="1320" y="-1140" width="1200" height="140" as="geometry" />
        </mxCell>
        <mxCell id="GsSrgzHy_Le1dBjLpQoA-36" value="" style="rounded=0;whiteSpace=wrap;html=1;" parent="1" vertex="1">
          <mxGeometry x="2560" y="-1000" width="1200" height="760" as="geometry" />
        </mxCell>
        <mxCell id="GsSrgzHy_Le1dBjLpQoA-37" value="&lt;font style=&quot;font-size: 48px;&quot;&gt;Генерация пароля&lt;/font&gt;" style="text;html=1;strokeColor=none;fillColor=none;align=center;verticalAlign=middle;whiteSpace=wrap;rounded=0;" parent="1" vertex="1">
          <mxGeometry x="2560" y="-1140" width="1200" height="140" as="geometry" />
        </mxCell>
        <mxCell id="GsSrgzHy_Le1dBjLpQoA-45" value="&lt;font style=&quot;font-size: 48px;&quot;&gt;Добавление пароля&lt;/font&gt;" style="text;html=1;strokeColor=none;fillColor=none;align=center;verticalAlign=middle;whiteSpace=wrap;rounded=0;" parent="1" vertex="1">
          <mxGeometry x="1320" y="-1000" width="1200" height="80" as="geometry" />
        </mxCell>
        <mxCell id="GsSrgzHy_Le1dBjLpQoA-46" value="&lt;font style=&quot;font-size: 48px;&quot;&gt;Генерация пароля&lt;/font&gt;" style="text;html=1;strokeColor=none;fillColor=none;align=center;verticalAlign=middle;whiteSpace=wrap;rounded=0;" parent="1" vertex="1">
          <mxGeometry x="2560" y="-1000" width="1200" height="80" as="geometry" />
        </mxCell>
        <mxCell id="GsSrgzHy_Le1dBjLpQoA-48" value="&lt;font style=&quot;font-size: 24px;&quot;&gt;Название&lt;/font&gt;" style="text;html=1;strokeColor=none;fillColor=none;align=center;verticalAlign=middle;whiteSpace=wrap;rounded=0;" parent="1" vertex="1">
          <mxGeometry x="1350" y="-910" width="130" height="30" as="geometry" />
        </mxCell>
        <mxCell id="GsSrgzHy_Le1dBjLpQoA-49" value="" style="rounded=1;whiteSpace=wrap;html=1;" parent="1" vertex="1">
          <mxGeometry x="1530" y="-907.5" width="980" height="25" as="geometry" />
        </mxCell>
        <mxCell id="GsSrgzHy_Le1dBjLpQoA-50" value="&lt;font style=&quot;font-size: 24px;&quot;&gt;Пароль&lt;/font&gt;" style="text;html=1;strokeColor=none;fillColor=none;align=center;verticalAlign=middle;whiteSpace=wrap;rounded=0;" parent="1" vertex="1">
          <mxGeometry x="1350" y="-870" width="130" height="30" as="geometry" />
        </mxCell>
        <mxCell id="GsSrgzHy_Le1dBjLpQoA-51" value="" style="rounded=1;whiteSpace=wrap;html=1;" parent="1" vertex="1">
          <mxGeometry x="1530" y="-867.5" width="980" height="25" as="geometry" />
        </mxCell>
        <mxCell id="GsSrgzHy_Le1dBjLpQoA-52" value="&lt;font style=&quot;font-size: 24px;&quot;&gt;Адрес&lt;/font&gt;" style="text;html=1;strokeColor=none;fillColor=none;align=center;verticalAlign=middle;whiteSpace=wrap;rounded=0;" parent="1" vertex="1">
          <mxGeometry x="1350" y="-830" width="130" height="30" as="geometry" />
        </mxCell>
        <mxCell id="GsSrgzHy_Le1dBjLpQoA-53" value="" style="rounded=1;whiteSpace=wrap;html=1;" parent="1" vertex="1">
          <mxGeometry x="1530" y="-827.5" width="980" height="25" as="geometry" />
        </mxCell>
        <mxCell id="GsSrgzHy_Le1dBjLpQoA-54" value="&lt;font style=&quot;font-size: 24px;&quot;&gt;Логин&lt;/font&gt;" style="text;html=1;strokeColor=none;fillColor=none;align=center;verticalAlign=middle;whiteSpace=wrap;rounded=0;" parent="1" vertex="1">
          <mxGeometry x="1350" y="-792.5" width="130" height="30" as="geometry" />
        </mxCell>
        <mxCell id="GsSrgzHy_Le1dBjLpQoA-55" value="" style="rounded=1;whiteSpace=wrap;html=1;" parent="1" vertex="1">
          <mxGeometry x="1530" y="-787.5" width="980" height="25" as="geometry" />
        </mxCell>
        <mxCell id="GsSrgzHy_Le1dBjLpQoA-56" value="&lt;font style=&quot;font-size: 24px;&quot;&gt;Дополнительно&lt;/font&gt;" style="text;html=1;strokeColor=none;fillColor=none;align=center;verticalAlign=middle;whiteSpace=wrap;rounded=0;" parent="1" vertex="1">
          <mxGeometry x="1360" y="-750" width="130" height="30" as="geometry" />
        </mxCell>
        <mxCell id="GsSrgzHy_Le1dBjLpQoA-57" value="" style="rounded=1;whiteSpace=wrap;html=1;" parent="1" vertex="1">
          <mxGeometry x="1530" y="-752.5" width="980" height="112.5" as="geometry" />
        </mxCell>
        <mxCell id="GsSrgzHy_Le1dBjLpQoA-58" value="&lt;font style=&quot;font-size: 18px;&quot;&gt;Назад&lt;/font&gt;" style="rounded=1;whiteSpace=wrap;html=1;" parent="1" vertex="1">
          <mxGeometry x="1330" y="-990" width="100" height="30" as="geometry" />
        </mxCell>
        <mxCell id="GsSrgzHy_Le1dBjLpQoA-59" value="&lt;font style=&quot;font-size: 18px;&quot;&gt;Добавить/Изменить&lt;/font&gt;" style="rounded=1;whiteSpace=wrap;html=1;" parent="1" vertex="1">
          <mxGeometry x="1820" y="-310" width="200" height="60" as="geometry" />
        </mxCell>
        <mxCell id="GsSrgzHy_Le1dBjLpQoA-60" value="&lt;font style=&quot;font-size: 18px;&quot;&gt;Назад&lt;/font&gt;" style="rounded=1;whiteSpace=wrap;html=1;" parent="1" vertex="1">
          <mxGeometry x="2570" y="-990" width="100" height="30" as="geometry" />
        </mxCell>
        <mxCell id="GsSrgzHy_Le1dBjLpQoA-61" value="&lt;font style=&quot;font-size: 18px;&quot;&gt;Сгенерировать&lt;/font&gt;" style="rounded=1;whiteSpace=wrap;html=1;" parent="1" vertex="1">
          <mxGeometry x="3085" y="-310" width="150" height="60" as="geometry" />
        </mxCell>
        <mxCell id="GsSrgzHy_Le1dBjLpQoA-68" value="" style="rounded=1;whiteSpace=wrap;html=1;" parent="1" vertex="1">
          <mxGeometry x="2995" y="-880" width="330" height="60" as="geometry" />
        </mxCell>
        <mxCell id="GsSrgzHy_Le1dBjLpQoA-69" value="&lt;font style=&quot;font-size: 24px;&quot;&gt;Буквы&lt;/font&gt;" style="text;html=1;strokeColor=none;fillColor=none;align=center;verticalAlign=middle;whiteSpace=wrap;rounded=0;" parent="1" vertex="1">
          <mxGeometry x="3060" y="-800" width="60" height="30" as="geometry" />
        </mxCell>
        <mxCell id="GsSrgzHy_Le1dBjLpQoA-70" value="" style="rounded=1;whiteSpace=wrap;html=1;" parent="1" vertex="1">
          <mxGeometry x="3140" y="-800" width="30" height="35" as="geometry" />
        </mxCell>
        <mxCell id="GsSrgzHy_Le1dBjLpQoA-71" value="&lt;font style=&quot;font-size: 24px;&quot;&gt;Цифры&lt;/font&gt;" style="text;html=1;strokeColor=none;fillColor=none;align=center;verticalAlign=middle;whiteSpace=wrap;rounded=0;" parent="1" vertex="1">
          <mxGeometry x="3040" y="-757.5" width="80" height="30" as="geometry" />
        </mxCell>
        <mxCell id="GsSrgzHy_Le1dBjLpQoA-72" value="" style="rounded=1;whiteSpace=wrap;html=1;" parent="1" vertex="1">
          <mxGeometry x="3140" y="-757.5" width="30" height="35" as="geometry" />
        </mxCell>
        <mxCell id="GsSrgzHy_Le1dBjLpQoA-73" value="&lt;font style=&quot;font-size: 24px;&quot;&gt;Символы&lt;/font&gt;" style="text;html=1;strokeColor=none;fillColor=none;align=center;verticalAlign=middle;whiteSpace=wrap;rounded=0;" parent="1" vertex="1">
          <mxGeometry x="3020" y="-713.75" width="100" height="30" as="geometry" />
        </mxCell>
        <mxCell id="GsSrgzHy_Le1dBjLpQoA-74" value="" style="rounded=1;whiteSpace=wrap;html=1;" parent="1" vertex="1">
          <mxGeometry x="3140" y="-713.75" width="30" height="35" as="geometry" />
        </mxCell>
        <mxCell id="GsSrgzHy_Le1dBjLpQoA-75" value="&lt;font style=&quot;font-size: 24px;&quot;&gt;Длина&lt;/font&gt;" style="text;html=1;strokeColor=none;fillColor=none;align=center;verticalAlign=middle;whiteSpace=wrap;rounded=0;" parent="1" vertex="1">
          <mxGeometry x="3050" y="-670" width="70" height="30" as="geometry" />
        </mxCell>
        <mxCell id="GsSrgzHy_Le1dBjLpQoA-76" value="" style="rounded=1;whiteSpace=wrap;html=1;" parent="1" vertex="1">
          <mxGeometry x="3140" y="-670" width="30" height="35" as="geometry" />
        </mxCell>
        <mxCell id="GsSrgzHy_Le1dBjLpQoA-77" value="" style="rounded=0;whiteSpace=wrap;html=1;" parent="1" vertex="1">
          <mxGeometry x="3800" y="-1000" width="1200" height="760" as="geometry" />
        </mxCell>
        <mxCell id="GsSrgzHy_Le1dBjLpQoA-78" value="&lt;font style=&quot;font-size: 48px;&quot;&gt;Настройки&lt;/font&gt;" style="text;html=1;strokeColor=none;fillColor=none;align=center;verticalAlign=middle;whiteSpace=wrap;rounded=0;" parent="1" vertex="1">
          <mxGeometry x="3800" y="-1140" width="1200" height="140" as="geometry" />
        </mxCell>
        <mxCell id="GsSrgzHy_Le1dBjLpQoA-79" value="&lt;font style=&quot;font-size: 18px;&quot;&gt;Назад&lt;/font&gt;" style="rounded=1;whiteSpace=wrap;html=1;" parent="1" vertex="1">
          <mxGeometry x="3810" y="-990" width="100" height="30" as="geometry" />
        </mxCell>
        <mxCell id="GsSrgzHy_Le1dBjLpQoA-80" value="&lt;font style=&quot;font-size: 18px;&quot;&gt;Созранить&lt;/font&gt;" style="rounded=1;whiteSpace=wrap;html=1;" parent="1" vertex="1">
          <mxGeometry x="4325" y="-310" width="150" height="60" as="geometry" />
        </mxCell>
        <mxCell id="GsSrgzHy_Le1dBjLpQoA-81" value="" style="rounded=1;whiteSpace=wrap;html=1;" parent="1" vertex="1">
          <mxGeometry x="4140" y="-872.5" width="840" height="35" as="geometry" />
        </mxCell>
        <mxCell id="GsSrgzHy_Le1dBjLpQoA-82" value="&lt;font style=&quot;font-size: 24px;&quot;&gt;Старый Пароль программы&lt;/font&gt;" style="text;html=1;strokeColor=none;fillColor=none;align=center;verticalAlign=middle;whiteSpace=wrap;rounded=0;" parent="1" vertex="1">
          <mxGeometry x="3810" y="-872.5" width="330" height="30" as="geometry" />
        </mxCell>
        <mxCell id="GsSrgzHy_Le1dBjLpQoA-83" value="" style="rounded=1;whiteSpace=wrap;html=1;" parent="1" vertex="1">
          <mxGeometry x="4140" y="-825" width="840" height="35" as="geometry" />
        </mxCell>
        <mxCell id="GsSrgzHy_Le1dBjLpQoA-84" value="&lt;font style=&quot;font-size: 24px;&quot;&gt;Новый Пароль программы&lt;/font&gt;" style="text;html=1;strokeColor=none;fillColor=none;align=center;verticalAlign=middle;whiteSpace=wrap;rounded=0;" parent="1" vertex="1">
          <mxGeometry x="3810" y="-825" width="340" height="30" as="geometry" />
        </mxCell>
        <mxCell id="GsSrgzHy_Le1dBjLpQoA-86" value="" style="rounded=1;whiteSpace=wrap;html=1;" parent="1" vertex="1">
          <mxGeometry x="4220" y="-750" width="765" height="35" as="geometry" />
        </mxCell>
        <mxCell id="GsSrgzHy_Le1dBjLpQoA-87" value="&lt;font style=&quot;font-size: 24px;&quot;&gt;Старый Пароль Важных паролей&lt;/font&gt;" style="text;html=1;strokeColor=none;fillColor=none;align=center;verticalAlign=middle;whiteSpace=wrap;rounded=0;" parent="1" vertex="1">
          <mxGeometry x="3815" y="-750" width="385" height="30" as="geometry" />
        </mxCell>
        <mxCell id="GsSrgzHy_Le1dBjLpQoA-88" value="" style="rounded=1;whiteSpace=wrap;html=1;" parent="1" vertex="1">
          <mxGeometry x="4230" y="-702.5" width="755" height="35" as="geometry" />
        </mxCell>
        <mxCell id="GsSrgzHy_Le1dBjLpQoA-89" value="&lt;font style=&quot;font-size: 24px;&quot;&gt;Новый Пароль Выжных паролей&lt;/font&gt;" style="text;html=1;strokeColor=none;fillColor=none;align=center;verticalAlign=middle;whiteSpace=wrap;rounded=0;" parent="1" vertex="1">
          <mxGeometry x="3815" y="-702.5" width="375" height="30" as="geometry" />
        </mxCell>
        <mxCell id="GsSrgzHy_Le1dBjLpQoA-90" value="&lt;font style=&quot;font-size: 48px;&quot;&gt;Настройки&lt;/font&gt;" style="text;html=1;strokeColor=none;fillColor=none;align=center;verticalAlign=middle;whiteSpace=wrap;rounded=0;" parent="1" vertex="1">
          <mxGeometry x="3800" y="-1000" width="1200" height="80" as="geometry" />
        </mxCell>
        <mxCell id="GsSrgzHy_Le1dBjLpQoA-97" value="&lt;font style=&quot;font-size: 18px;&quot;&gt;Сбросить&lt;/font&gt;" style="rounded=1;whiteSpace=wrap;html=1;" parent="1" vertex="1">
          <mxGeometry x="3815" y="-644" width="150" height="60" as="geometry" />
        </mxCell>
        <mxCell id="nK8hob4mrgsWqwGjmoGw-1" value="&lt;font style=&quot;font-size: 24px;&quot;&gt;Важность&lt;/font&gt;" style="text;html=1;strokeColor=none;fillColor=none;align=center;verticalAlign=middle;whiteSpace=wrap;rounded=0;" parent="1" vertex="1">
          <mxGeometry x="1385" y="-614" width="60" height="30" as="geometry" />
        </mxCell>
      </root>
    </mxGraphModel>
  </diagram>
</mxfile>
